<svg xmlns="http://www.w3.org/2000/svg" viewBox="0 0 256 256" role="img" aria-label="lvy avatar">
  <defs>
    <radialGradient id="sun" cx="42%" cy="34%" r="58%">
      <stop offset="0%" stop-color="#fff9b9"/>
      <stop offset="100%" stop-color="#ffe882"/>
    </radialGradient>
    <linearGradient id="cat" x1="58" x2="198" y1="80" y2="218">
      <stop offset="0%" stop-color="#f2f0ff"/>
      <stop offset="52%" stop-color="#d9dcff"/>
      <stop offset="100%" stop-color="#bfc9f0"/>
    </linearGradient>
  </defs>
  <rect width="256" height="256" rx="128" fill="url(#sun)"/>
  <path fill="url(#cat)" d="M71 105c3-26 24-45 57-45 32 0 54 19 57 45 13 13 20 30 20 51 0 43-31 72-77 72s-77-29-77-72c0-21 7-38 20-51Z"/>
  <path fill="#e7e7ff" d="M75 104 61 58c-1-5 4-9 8-6l42 29Zm106 0 14-46c1-5-4-9-8-6l-42 29Z"/>
  <circle cx="102" cy="143" r="8" fill="#1f3333"/>
  <circle cx="154" cy="143" r="8" fill="#1f3333"/>
  <path fill="none" stroke="#1f3333" stroke-linecap="round" stroke-width="7" d="M128 152v10m0 0c-6 9-17 9-24 1m24-1c6 9 17 9 24 1"/>
  <path fill="none" stroke="#1f3333" stroke-linecap="round" stroke-width="5" d="M75 146h-28m31 17H50m128-17h28m-31 17h28"/>
  <circle cx="84" cy="164" r="9" fill="#ffc7d4" opacity=".55"/>
  <circle cx="172" cy="164" r="9" fill="#ffc7d4" opacity=".55"/>
</svg>
